<?xml version="1.0" standalone="no"?>
<!DOCTYPE svg PUBLIC "-//W3C//DTD SVG 20010904//EN"
 "http://www.w3.org/TR/2001/REC-SVG-20010904/DTD/svg10.dtd">
<svg version="1.0" xmlns="http://www.w3.org/2000/svg"
 width="1920.000000pt" height="1920.000000pt" viewBox="0 0 1920.000000 1920.000000"
 preserveAspectRatio="xMidYMid meet">

<g transform="translate(0.000000,1920.000000) scale(0.100000,-0.100000)"
fill="#000000" stroke="none">
<path d="M11359 14785 c-1 -137 -3 -290 -4 -340 0 -49 -2 -154 -3 -231 l-2
-142 -137 55 c-577 230 -1214 376 -1838 423 -179 14 -671 13 -840 0 -1500
-120 -2772 -804 -3585 -1928 -254 -351 -470 -777 -609 -1202 -209 -639 -273
-1352 -185 -2070 161 -1316 863 -2605 1945 -3574 1011 -905 2270 -1466 3599
-1602 213 -21 741 -30 955 -15 918 64 1747 339 2473 819 61 41 112 76 112 78
0 2 -26 -8 -57 -22 -499 -223 -1077 -364 -1698 -415 -209 -17 -704 -14 -930 5
-825 73 -1588 287 -2334 656 -667 330 -1234 740 -1751 1266 -353 359 -617 700
-868 1119 -111 186 -285 540 -365 745 -364 925 -423 1891 -171 2774 207 725
621 1364 1210 1870 688 591 1577 966 2559 1080 423 50 902 50 1350 0 308 -34
740 -120 1045 -208 l115 -33 3 -344 c2 -189 0 -453 -3 -587 l-7 -242 -49 -22
c-59 -25 -129 -99 -148 -154 -7 -22 -15 -103 -18 -181 l-5 -141 -55 -7 c-193
-24 -378 -155 -463 -327 -73 -150 -68 32 -76 -2534 l-7 -2314 -256 0 c-230 0
-260 -2 -291 -19 -108 -57 -108 -219 0 -273 32 -16 80 -18 562 -18 290 0 529
-4 532 -8 2 -4 2 -407 -1 -896 -4 -628 -9 -889 -17 -891 -6 -1 -54 -12 -106
-24 -116 -27 -197 -66 -228 -112 l-24 -34 22 -3 c13 -2 33 6 49 21 39 37 71
55 136 77 76 26 83 19 7 -9 -75 -28 -118 -62 -108 -86 6 -17 25 -17 339 -12
182 3 377 11 432 16 222 24 356 44 347 53 -5 5 -31 17 -58 28 -27 10 -40 19
-29 19 11 1 44 -10 73 -24 56 -26 87 -31 96 -17 12 20 -219 102 -285 102 -10
0 -19 8 -21 17 -2 9 -2 412 0 895 l2 877 539 3 c527 3 540 3 567 24 52 38 69
71 69 132 0 44 -5 65 -23 90 -42 58 -56 61 -342 69 l-261 6 7 2306 c5 1757 4
2321 -5 2371 -7 36 -32 107 -57 157 -85 176 -240 294 -437 331 l-87 16 0 136
c0 99 -4 149 -16 184 -21 61 -94 136 -154 157 l-44 16 2 118 c1 65 3 119 4
121 16 15 544 -243 753 -368 1579 -945 2625 -2594 2766 -4362 11 -137 7 -687
-6 -816 l-4 -45 15 55 c26 100 73 392 89 565 32 337 18 787 -36 1145 -130 857
-490 1704 -1036 2435 -627 841 -1478 1507 -2413 1890 l-125 52 -3 171 c-2 143
0 172 12 172 21 0 229 -73 393 -139 207 -83 365 -155 568 -260 96 -49 175 -88
175 -86 0 3 -91 65 -202 139 -254 168 -464 289 -734 422 l-211 103 4 363 5
363 -51 140 -50 140 -2 -250z m436 -2739 c144 -52 255 -171 295 -316 10 -35
12 -535 11 -2315 -1 -1248 -6 -2273 -10 -2278 -4 -4 -324 -6 -712 -5 l-704 3
-3 173 -2 172 256 0 256 0 30 30 c25 26 29 36 24 63 -4 18 -15 41 -27 52 -18
19 -35 20 -279 23 l-260 3 0 134 0 135 258 0 c211 0 261 3 279 15 44 31 37
111 -13 134 -16 7 -110 11 -274 11 l-250 0 0 135 0 135 250 0 c264 0 289 4
309 47 17 36 13 59 -12 88 l-23 27 -262 5 -263 6 3 131 3 131 258 0 259 0 24
28 c34 39 31 79 -7 111 l-31 26 -254 0 -254 0 0 210 0 210 665 0 665 0 0 993
c1 545 1 1065 1 1154 0 174 -3 191 -34 268 -45 110 -146 209 -253 249 -27 10
-53 23 -58 27 -20 19 76 8 139 -15z m-570 -541 c39 -38 37 -88 -6 -127 l-29
-28 -255 0 -255 0 0 90 0 90 260 0 261 0 24 -25z m-1 -434 c36 -34 36 -93 0
-126 l-27 -25 -258 0 -259 0 0 90 0 91 259 -3 c259 -3 259 -3 285 -27z m1
-436 c33 -32 33 -84 1 -122 l-24 -28 -258 3 c-141 1 -260 5 -264 7 -9 6 -12
143 -4 156 3 5 122 9 265 9 l260 0 24 -25z m-4 -434 c39 -40 39 -82 0 -122
l-30 -29 -258 2 -258 3 -1 62 c-1 33 1 73 3 87 l5 26 255 0 255 0 29 -29z
m-108 -411 c81 0 90 -2 114 -26 22 -22 25 -32 20 -67 -10 -76 -13 -77 -313
-77 l-264 0 0 83 c0 46 3 87 8 92 4 4 84 5 177 1 94 -3 210 -6 258 -6z"/>
<path d="M9355 13839 c-880 -61 -1654 -358 -2315 -888 -120 -97 -357 -326
-469 -456 -500 -575 -817 -1283 -930 -2070 -61 -428 -60 -920 5 -1353 38 -261
40 -258 36 59 -7 484 31 826 138 1244 73 284 156 507 296 790 374 762 983
1371 1739 1740 420 205 843 326 1350 387 148 18 738 18 900 0 384 -42 781
-129 1086 -237 l66 -23 6 265 c4 146 5 269 2 273 -3 4 -49 22 -102 39 -595
187 -1245 270 -1808 230z"/>
<path d="M6980 10632 c-19 -11 -48 -38 -65 -61 l-30 -43 -3 -258 c-2 -174 1
-272 8 -301 15 -56 73 -114 127 -128 30 -8 384 -11 1250 -9 1340 3 1238 -2
1297 68 43 51 47 92 44 368 -3 287 -5 296 -75 349 l-36 28 -1241 3 c-1194 2
-1242 2 -1276 -16z m2484 -113 c17 -14 26 -30 26 -50 l0 -29 -1164 0 c-1131 0
-1164 -1 -1187 -19 -24 -19 -24 -21 -26 -243 l-2 -223 -35 -3 c-25 -2 -41 3
-55 17 -20 20 -21 32 -21 273 0 245 1 252 22 275 l21 23 1197 0 c1196 0 1197
0 1224 -21z"/>
<path d="M7245 9698 c-2 -7 -6 -85 -8 -173 -7 -228 -29 -293 -183 -521 -111
-167 -174 -309 -221 -499 -15 -63 -17 -171 -20 -1102 l-4 -1031 47 -44 c25
-23 52 -47 61 -51 13 -8 14 115 11 1050 -3 997 -2 1063 15 1138 41 176 93 296
201 458 153 231 190 326 209 535 l11 132 105 0 104 0 -6 -117 c-10 -206 -47
-305 -204 -547 -94 -146 -140 -237 -172 -340 -47 -154 -51 -213 -51 -843 l0
-593 1198 -2 1197 -3 3 -47 3 -48 -295 0 -296 0 0 -30 0 -30 296 0 295 0 -3
-37 -3 -38 -232 -3 -233 -2 0 -30 0 -30 235 0 235 0 0 -35 0 -35 -150 0 -150
0 0 -30 0 -30 150 0 150 0 0 -447 c0 -247 -3 -512 -7 -590 l-6 -143 -761 -2
-761 -3 161 -82 c306 -156 560 -261 897 -375 l207 -70 119 4 c111 3 121 5 167
33 30 19 60 49 79 79 l30 49 8 396 c4 218 6 952 4 1631 -3 1120 -4 1242 -20
1305 -46 192 -108 329 -231 515 -143 215 -165 282 -175 520 l-6 165 -998 3
c-793 2 -998 0 -1002 -10z m2043 -2145 l-3 -88 -1040 0 -1040 0 -3 88 -3 87
1046 0 1046 0 -3 -87z"/>
<path d="M8052 6948 c-9 -9 -12 -68 -12 -205 l0 -193 -193 0 c-137 0 -196 -3
-205 -12 -8 -8 -12 -66 -12 -193 0 -127 4 -185 12 -193 9 -9 68 -12 205 -12
l193 0 0 -193 c0 -137 3 -196 12 -205 8 -8 66 -12 193 -12 127 0 185 4 193 12
9 9 12 68 12 205 l0 193 193 0 c137 0 196 3 205 12 8 8 12 66 12 193 0 127 -4
185 -12 193 -9 9 -68 12 -205 12 l-193 0 0 193 c0 137 -3 196 -12 205 -8 8
-66 12 -193 12 -127 0 -185 -4 -193 -12z"/>
</g>
</svg>
